<svg aria-hidden="true" style="position: absolute; width: 0; height: 0; overflow: hidden;" version="1.1" xmlns="http://www.w3.org/2000/svg" xmlns:xlink="http://www.w3.org/1999/xlink">
<defs>
<symbol id="icon-eye" viewBox="0 0 34 32">
<path stroke-linejoin="round" stroke-linecap="round" stroke-miterlimit="4" stroke-width="1.1429" d="M5.756 14.082c-0.079-0.237-0.079-0.493 0-0.73 1.585-4.769 6.085-8.209 11.387-8.209 5.301 0 9.798 3.437 11.386 8.203 0.080 0.237 0.080 0.493 0 0.73-1.584 4.769-6.083 8.209-11.386 8.209-5.301 0-9.799-3.437-11.387-8.203z"></path>
<path stroke-linejoin="round" stroke-linecap="round" stroke-miterlimit="4" stroke-width="1.1429" d="M20.571 13.714c0 0.909-0.361 1.781-1.004 2.424s-1.515 1.004-2.424 1.004c-0.909 0-1.781-0.361-2.424-1.004s-1.004-1.515-1.004-2.424c0-0.909 0.361-1.781 1.004-2.424s1.515-1.004 2.424-1.004c0.909 0 1.781 0.361 2.424 1.004s1.004 1.515 1.004 2.424z"></path>
</symbol>
<symbol id="icon-eye-slash" viewBox="0 0 32 32">
<path stroke-linejoin="round" stroke-linecap="round" stroke-miterlimit="4" stroke-width="1.3333" d="M5.307 10.964c-1.247 1.472-2.176 3.187-2.728 5.036 1.723 5.784 7.080 10 13.421 10 1.324 0 2.604-0.184 3.817-0.527M8.304 8.304c2.284-1.507 4.96-2.308 7.696-2.304 6.341 0 11.697 4.216 13.42 9.997-0.944 3.159-2.971 5.885-5.724 7.699M8.304 8.304l-4.304-4.304M8.304 8.304l4.867 4.867M23.696 23.696l4.304 4.304M23.696 23.696l-4.867-4.867c0.371-0.371 0.666-0.812 0.867-1.298s0.304-1.005 0.304-1.531-0.103-1.045-0.304-1.531c-0.201-0.485-0.496-0.926-0.867-1.298s-0.813-0.666-1.298-0.867c-0.485-0.201-1.005-0.304-1.531-0.304s-1.046 0.103-1.531 0.305c-0.485 0.201-0.926 0.496-1.298 0.867M18.828 18.828l-5.655-5.655"></path>
</symbol>
</defs>
</svg>
